%TF.GenerationSoftware,KiCad,Pcbnew,4.0.4-stable*%
%TF.CreationDate,2016-12-19T18:11:36-10:00*%
%TF.ProjectId,de0-cv-shield,6465302D63762D736869656C642E6B69,rev?*%
%TF.FileFunction,Soldermask,Top*%
%FSLAX46Y46*%
G04 Gerber Fmt 4.6, Leading zero omitted, Abs format (unit mm)*
G04 Created by KiCad (PCBNEW 4.0.4-stable) date 12/19/16 18:11:36*
%MOMM*%
%LPD*%
G01*
G04 APERTURE LIST*
%ADD10C,1.000760*%
%ADD11C,6.400000*%
%ADD12C,0.600000*%
%ADD13R,2.900680X5.400040*%
%ADD14R,1.778000X2.794000*%
%ADD15R,1.200000X0.750000*%
%ADD16R,2.500000X4.000000*%
%ADD17R,2.700000X3.750000*%
%ADD18R,2.032000X1.727200*%
%ADD19O,2.032000X1.727200*%
%ADD20R,0.797560X0.797560*%
%ADD21R,1.727200X1.727200*%
%ADD22O,1.727200X1.727200*%
%ADD23R,3.048000X1.651000*%
%ADD24R,6.096000X6.096000*%
%ADD25R,0.900000X1.200000*%
%ADD26R,1.200000X0.900000*%
%ADD27R,1.600000X1.600000*%
%ADD28O,1.600000X1.600000*%
%ADD29R,1.550000X0.600000*%
%ADD30R,1.000000X0.400000*%
%ADD31R,0.250000X1.300000*%
%ADD32R,1.300000X0.250000*%
%ADD33R,1.500000X0.600000*%
%ADD34R,1.100000X4.600000*%
%ADD35R,10.800000X9.400000*%
%ADD36R,2.499360X3.299460*%
%ADD37R,0.500380X2.301240*%
%ADD38R,1.998980X2.499360*%
%ADD39C,0.899160*%
%ADD40R,0.750000X1.200000*%
%ADD41C,2.100000*%
%ADD42C,3.200000*%
%ADD43C,1.778000*%
%ADD44R,3.800000X2.000000*%
%ADD45R,1.500000X2.000000*%
%ADD46R,1.400000X0.280000*%
G04 APERTURE END LIST*
D10*
D11*
X117542944Y-104982944D03*
D12*
X119942944Y-104982944D03*
X119240000Y-106680000D03*
X117542944Y-107382944D03*
X115845888Y-106680000D03*
X115142944Y-104982944D03*
X115845888Y-103285888D03*
X117542944Y-102582944D03*
X119240000Y-103285888D03*
D11*
X76200000Y-127000000D03*
D12*
X78600000Y-127000000D03*
X77897056Y-128697056D03*
X76200000Y-129400000D03*
X74502944Y-128697056D03*
X73800000Y-127000000D03*
X74502944Y-125302944D03*
X76200000Y-124600000D03*
X77897056Y-125302944D03*
D11*
X134620000Y-58420000D03*
D12*
X137020000Y-58420000D03*
X136317056Y-60117056D03*
X134620000Y-60820000D03*
X132922944Y-60117056D03*
X132220000Y-58420000D03*
X132922944Y-56722944D03*
X134620000Y-56020000D03*
X136317056Y-56722944D03*
D13*
X127259080Y-117729000D03*
X137160000Y-117729000D03*
D14*
X136144000Y-78867000D03*
X139700000Y-78867000D03*
X151130000Y-73025000D03*
X154686000Y-73025000D03*
D15*
X112710000Y-83185000D03*
X110810000Y-83185000D03*
X108270000Y-56515000D03*
X110170000Y-56515000D03*
X108270000Y-59055000D03*
X110170000Y-59055000D03*
X108270000Y-61595000D03*
X110170000Y-61595000D03*
X108270000Y-64135000D03*
X110170000Y-64135000D03*
X115255000Y-54737000D03*
X117155000Y-54737000D03*
X108270000Y-66675000D03*
X110170000Y-66675000D03*
X108270000Y-69215000D03*
X110170000Y-69215000D03*
X108270000Y-71755000D03*
X110170000Y-71755000D03*
X108270000Y-74295000D03*
X110170000Y-74295000D03*
X115255000Y-76073000D03*
X117155000Y-76073000D03*
D16*
X121920000Y-96710000D03*
X121920000Y-88710000D03*
D17*
X141605000Y-109890000D03*
X141605000Y-117440000D03*
D18*
X142875000Y-55245000D03*
D19*
X142875000Y-57785000D03*
X142875000Y-60325000D03*
D20*
X122440700Y-129540000D03*
X123939300Y-129540000D03*
X130060700Y-129540000D03*
X131559300Y-129540000D03*
X137680700Y-129540000D03*
X139179300Y-129540000D03*
X145300700Y-129540000D03*
X146799300Y-129540000D03*
X110604300Y-102235000D03*
X109105700Y-102235000D03*
X110604300Y-93345000D03*
X109105700Y-93345000D03*
D21*
X152400000Y-80645000D03*
D22*
X154940000Y-80645000D03*
X152400000Y-83185000D03*
X154940000Y-83185000D03*
X152400000Y-85725000D03*
X154940000Y-85725000D03*
X152400000Y-88265000D03*
X154940000Y-88265000D03*
X152400000Y-90805000D03*
X154940000Y-90805000D03*
X152400000Y-93345000D03*
X154940000Y-93345000D03*
X152400000Y-95885000D03*
X154940000Y-95885000D03*
X152400000Y-98425000D03*
X154940000Y-98425000D03*
X152400000Y-100965000D03*
X154940000Y-100965000D03*
X152400000Y-103505000D03*
X154940000Y-103505000D03*
X152400000Y-106045000D03*
X154940000Y-106045000D03*
X152400000Y-108585000D03*
X154940000Y-108585000D03*
X152400000Y-111125000D03*
X154940000Y-111125000D03*
X152400000Y-113665000D03*
X154940000Y-113665000D03*
X152400000Y-116205000D03*
X154940000Y-116205000D03*
X152400000Y-118745000D03*
X154940000Y-118745000D03*
X152400000Y-121285000D03*
X154940000Y-121285000D03*
X152400000Y-123825000D03*
X154940000Y-123825000D03*
X152400000Y-126365000D03*
X154940000Y-126365000D03*
X152400000Y-128905000D03*
X154940000Y-128905000D03*
D23*
X102870000Y-125476000D03*
D24*
X96520000Y-123190000D03*
D23*
X102870000Y-120904000D03*
X102870000Y-117221000D03*
D24*
X96520000Y-114935000D03*
D23*
X102870000Y-112649000D03*
X116205000Y-124841000D03*
D24*
X109855000Y-122555000D03*
D23*
X116205000Y-120269000D03*
X116205000Y-117221000D03*
D24*
X109855000Y-114935000D03*
D23*
X116205000Y-112649000D03*
X102870000Y-108331000D03*
D24*
X96520000Y-106045000D03*
D23*
X102870000Y-103759000D03*
X102870000Y-99441000D03*
D24*
X96520000Y-97155000D03*
D23*
X102870000Y-94869000D03*
D25*
X113030000Y-81110000D03*
X113030000Y-78910000D03*
X110490000Y-81110000D03*
X110490000Y-78910000D03*
D26*
X92880000Y-56515000D03*
X95080000Y-56515000D03*
X100160000Y-56515000D03*
X97960000Y-56515000D03*
X92880000Y-59055000D03*
X95080000Y-59055000D03*
X100160000Y-59055000D03*
X97960000Y-59055000D03*
X92880000Y-61595000D03*
X95080000Y-61595000D03*
X100160000Y-61595000D03*
X97960000Y-61595000D03*
X92880000Y-64135000D03*
X95080000Y-64135000D03*
X100160000Y-64135000D03*
X97960000Y-64135000D03*
X105240000Y-56515000D03*
X103040000Y-56515000D03*
X105240000Y-59055000D03*
X103040000Y-59055000D03*
X105240000Y-61595000D03*
X103040000Y-61595000D03*
X105240000Y-64135000D03*
X103040000Y-64135000D03*
X122090000Y-59055000D03*
X124290000Y-59055000D03*
X122090000Y-61595000D03*
X124290000Y-61595000D03*
X122090000Y-64135000D03*
X124290000Y-64135000D03*
X122090000Y-56515000D03*
X124290000Y-56515000D03*
X92880000Y-66675000D03*
X95080000Y-66675000D03*
X100160000Y-66675000D03*
X97960000Y-66675000D03*
X92880000Y-69215000D03*
X95080000Y-69215000D03*
X100160000Y-69215000D03*
X97960000Y-69215000D03*
X92880000Y-71755000D03*
X95080000Y-71755000D03*
X100160000Y-71755000D03*
X97960000Y-71755000D03*
X92880000Y-74295000D03*
X95080000Y-74295000D03*
X100160000Y-74295000D03*
X97960000Y-74295000D03*
X105240000Y-66675000D03*
X103040000Y-66675000D03*
X105240000Y-69215000D03*
X103040000Y-69215000D03*
X105240000Y-71755000D03*
X103040000Y-71755000D03*
X105240000Y-74295000D03*
X103040000Y-74295000D03*
X122090000Y-69215000D03*
X124290000Y-69215000D03*
X122090000Y-71755000D03*
X124290000Y-71755000D03*
X122090000Y-74295000D03*
X124290000Y-74295000D03*
X122090000Y-66675000D03*
X124290000Y-66675000D03*
X120480000Y-129540000D03*
X118280000Y-129540000D03*
X128100000Y-129540000D03*
X125900000Y-129540000D03*
D25*
X105664000Y-125433000D03*
X105664000Y-123233000D03*
X105410000Y-115865000D03*
X105410000Y-113665000D03*
D26*
X105070000Y-127635000D03*
X102870000Y-127635000D03*
X103040000Y-118999000D03*
X105240000Y-118999000D03*
X135720000Y-129540000D03*
X133520000Y-129540000D03*
X143340000Y-129540000D03*
X141140000Y-129540000D03*
D25*
X119380000Y-122895000D03*
X119380000Y-125095000D03*
X119380000Y-113030000D03*
X119380000Y-115230000D03*
X119380000Y-119845000D03*
X119380000Y-117645000D03*
X123952000Y-113792000D03*
X123952000Y-111592000D03*
X111125000Y-104310000D03*
X111125000Y-106510000D03*
X111125000Y-95420000D03*
X111125000Y-97620000D03*
D26*
X106215000Y-108585000D03*
X108415000Y-108585000D03*
X106215000Y-99695000D03*
X108415000Y-99695000D03*
D25*
X108585000Y-106510000D03*
X108585000Y-104310000D03*
X108585000Y-97620000D03*
X108585000Y-95420000D03*
D27*
X128270000Y-76835000D03*
D28*
X128270000Y-74295000D03*
X128270000Y-71755000D03*
X128270000Y-69215000D03*
X128270000Y-66675000D03*
X128270000Y-64135000D03*
X128270000Y-61595000D03*
X128270000Y-59055000D03*
X128270000Y-56515000D03*
D29*
X107475000Y-83820000D03*
X107475000Y-82550000D03*
X107475000Y-81280000D03*
X107475000Y-80010000D03*
X102075000Y-80010000D03*
X102075000Y-81280000D03*
X102075000Y-82550000D03*
X102075000Y-83820000D03*
X97315000Y-82550000D03*
X97315000Y-81280000D03*
X97315000Y-80010000D03*
X97315000Y-78740000D03*
X91915000Y-78740000D03*
X91915000Y-80010000D03*
X91915000Y-81280000D03*
X91915000Y-82550000D03*
D30*
X155808000Y-68610000D03*
X155808000Y-67960000D03*
X155808000Y-67310000D03*
X155808000Y-66660000D03*
X155808000Y-66010000D03*
X155808000Y-65360000D03*
X155808000Y-64710000D03*
X155808000Y-64060000D03*
X150008000Y-64060000D03*
X150008000Y-64710000D03*
X150008000Y-65360000D03*
X150008000Y-66010000D03*
X150008000Y-66660000D03*
X150008000Y-67310000D03*
X150008000Y-67960000D03*
X150008000Y-68610000D03*
D31*
X139275000Y-63595000D03*
X138775000Y-63595000D03*
X138275000Y-63595000D03*
X137775000Y-63595000D03*
X137275000Y-63595000D03*
X136775000Y-63595000D03*
X136275000Y-63595000D03*
X135775000Y-63595000D03*
X135275000Y-63595000D03*
X134775000Y-63595000D03*
X134275000Y-63595000D03*
X133775000Y-63595000D03*
D32*
X132175000Y-65195000D03*
X132175000Y-65695000D03*
X132175000Y-66195000D03*
X132175000Y-66695000D03*
X132175000Y-67195000D03*
X132175000Y-67695000D03*
X132175000Y-68195000D03*
X132175000Y-68695000D03*
X132175000Y-69195000D03*
X132175000Y-69695000D03*
X132175000Y-70195000D03*
X132175000Y-70695000D03*
D31*
X133775000Y-72295000D03*
X134275000Y-72295000D03*
X134775000Y-72295000D03*
X135275000Y-72295000D03*
X135775000Y-72295000D03*
X136275000Y-72295000D03*
X136775000Y-72295000D03*
X137275000Y-72295000D03*
X137775000Y-72295000D03*
X138275000Y-72295000D03*
X138775000Y-72295000D03*
X139275000Y-72295000D03*
D32*
X140875000Y-70695000D03*
X140875000Y-70195000D03*
X140875000Y-69695000D03*
X140875000Y-69195000D03*
X140875000Y-68695000D03*
X140875000Y-68195000D03*
X140875000Y-67695000D03*
X140875000Y-67195000D03*
X140875000Y-66695000D03*
X140875000Y-66195000D03*
X140875000Y-65695000D03*
X140875000Y-65195000D03*
D29*
X128905000Y-83820000D03*
X128905000Y-82550000D03*
X128905000Y-81280000D03*
X128905000Y-80010000D03*
X123505000Y-80010000D03*
X123505000Y-81280000D03*
X123505000Y-82550000D03*
X123505000Y-83820000D03*
D33*
X113505000Y-56515000D03*
X113505000Y-57785000D03*
X113505000Y-59055000D03*
X113505000Y-60325000D03*
X113505000Y-61595000D03*
X113505000Y-62865000D03*
X113505000Y-64135000D03*
X118905000Y-64135000D03*
X118905000Y-62865000D03*
X118905000Y-61595000D03*
X118905000Y-60325000D03*
X118905000Y-59055000D03*
X118905000Y-57785000D03*
X118905000Y-56515000D03*
X113505000Y-66675000D03*
X113505000Y-67945000D03*
X113505000Y-69215000D03*
X113505000Y-70485000D03*
X113505000Y-71755000D03*
X113505000Y-73025000D03*
X113505000Y-74295000D03*
X118905000Y-74295000D03*
X118905000Y-73025000D03*
X118905000Y-71755000D03*
X118905000Y-70485000D03*
X118905000Y-69215000D03*
X118905000Y-67945000D03*
X118905000Y-66675000D03*
D34*
X137766000Y-100336000D03*
X136066000Y-100336000D03*
X132666000Y-100336000D03*
D35*
X134366000Y-91186000D03*
D34*
X134366000Y-100336000D03*
X130966000Y-100336000D03*
D36*
X129948940Y-107061000D03*
X136751060Y-107061000D03*
D37*
X152730200Y-61234320D03*
X151930100Y-61234320D03*
X151130000Y-61234320D03*
X150329900Y-61234320D03*
X149529800Y-61234320D03*
D38*
X155580080Y-61135260D03*
X155580080Y-55636160D03*
X146679920Y-61135260D03*
X146679920Y-55636160D03*
D39*
X153329640Y-58635900D03*
X148930360Y-58635900D03*
D40*
X143510000Y-65532000D03*
X143510000Y-67432000D03*
D15*
X105410000Y-86360000D03*
X107310000Y-86360000D03*
X141356000Y-63246000D03*
X143256000Y-63246000D03*
D20*
X146812000Y-65786000D03*
X146812000Y-64287400D03*
X148336000Y-65786000D03*
X148336000Y-64287400D03*
D25*
X140208000Y-54950000D03*
X140208000Y-57150000D03*
X146812000Y-67480000D03*
X146812000Y-69680000D03*
X148336000Y-67480000D03*
X148336000Y-69680000D03*
D26*
X103800000Y-86360000D03*
X101600000Y-86360000D03*
X107610000Y-87630000D03*
X105410000Y-87630000D03*
D41*
X82285000Y-115705000D03*
X82285000Y-110455000D03*
X82285000Y-102905000D03*
X82285000Y-97655000D03*
X75985000Y-97930000D03*
X75985000Y-101430000D03*
X75985000Y-104930000D03*
X75985000Y-108430000D03*
X75985000Y-111930000D03*
D42*
X85645000Y-59690000D03*
X85645000Y-87630000D03*
X85645000Y-92710000D03*
X85645000Y-120650000D03*
D41*
X75985000Y-115430000D03*
X82285000Y-113405000D03*
X82285000Y-108155000D03*
X82285000Y-105205000D03*
X82285000Y-99955000D03*
D43*
X78105000Y-85090000D03*
X78105000Y-82550000D03*
X78105000Y-80010000D03*
X78105000Y-77470000D03*
X78105000Y-74930000D03*
X78105000Y-72390000D03*
X78105000Y-69850000D03*
X78105000Y-67310000D03*
X78105000Y-64770000D03*
X78105000Y-62230000D03*
X80645000Y-85090000D03*
X80645000Y-82550000D03*
X80645000Y-80010000D03*
X80645000Y-77470000D03*
X80645000Y-74930000D03*
X80645000Y-72390000D03*
X80645000Y-69850000D03*
X80645000Y-67310000D03*
X80645000Y-64770000D03*
X80645000Y-62230000D03*
D44*
X144780000Y-74955000D03*
D45*
X144780000Y-81255000D03*
X147080000Y-81255000D03*
X142480000Y-81255000D03*
D46*
X115335000Y-82439000D03*
X115335000Y-82939000D03*
X115335000Y-83439000D03*
X115335000Y-83939000D03*
X115335000Y-84439000D03*
X119615000Y-84439000D03*
X119615000Y-83939000D03*
X119615000Y-83439000D03*
X119615000Y-82939000D03*
X119615000Y-82439000D03*
M02*
