%TF.GenerationSoftware,KiCad,Pcbnew,4.0.4-stable*%
%TF.CreationDate,2016-12-19T18:11:36-10:00*%
%TF.ProjectId,de0-cv-shield,6465302D63762D736869656C642E6B69,rev?*%
%TF.FileFunction,Soldermask,Bot*%
%FSLAX46Y46*%
G04 Gerber Fmt 4.6, Leading zero omitted, Abs format (unit mm)*
G04 Created by KiCad (PCBNEW 4.0.4-stable) date 12/19/16 18:11:36*
%MOMM*%
%LPD*%
G01*
G04 APERTURE LIST*
%ADD10C,1.000760*%
%ADD11C,6.400000*%
%ADD12C,0.600000*%
%ADD13R,2.032000X1.727200*%
%ADD14O,2.032000X1.727200*%
%ADD15R,1.727200X1.727200*%
%ADD16O,1.727200X1.727200*%
%ADD17R,1.600000X1.600000*%
%ADD18O,1.600000X1.600000*%
%ADD19R,0.900000X1.200000*%
%ADD20C,0.899160*%
%ADD21R,0.750000X1.200000*%
%ADD22C,2.100000*%
%ADD23C,3.200000*%
%ADD24C,1.778000*%
G04 APERTURE END LIST*
D10*
D11*
X117542944Y-104982944D03*
D12*
X119942944Y-104982944D03*
X119240000Y-106680000D03*
X117542944Y-107382944D03*
X115845888Y-106680000D03*
X115142944Y-104982944D03*
X115845888Y-103285888D03*
X117542944Y-102582944D03*
X119240000Y-103285888D03*
D11*
X76200000Y-127000000D03*
D12*
X78600000Y-127000000D03*
X77897056Y-128697056D03*
X76200000Y-129400000D03*
X74502944Y-128697056D03*
X73800000Y-127000000D03*
X74502944Y-125302944D03*
X76200000Y-124600000D03*
X77897056Y-125302944D03*
D11*
X134620000Y-58420000D03*
D12*
X137020000Y-58420000D03*
X136317056Y-60117056D03*
X134620000Y-60820000D03*
X132922944Y-60117056D03*
X132220000Y-58420000D03*
X132922944Y-56722944D03*
X134620000Y-56020000D03*
X136317056Y-56722944D03*
D13*
X142875000Y-55245000D03*
D14*
X142875000Y-57785000D03*
X142875000Y-60325000D03*
D15*
X152400000Y-80645000D03*
D16*
X154940000Y-80645000D03*
X152400000Y-83185000D03*
X154940000Y-83185000D03*
X152400000Y-85725000D03*
X154940000Y-85725000D03*
X152400000Y-88265000D03*
X154940000Y-88265000D03*
X152400000Y-90805000D03*
X154940000Y-90805000D03*
X152400000Y-93345000D03*
X154940000Y-93345000D03*
X152400000Y-95885000D03*
X154940000Y-95885000D03*
X152400000Y-98425000D03*
X154940000Y-98425000D03*
X152400000Y-100965000D03*
X154940000Y-100965000D03*
X152400000Y-103505000D03*
X154940000Y-103505000D03*
X152400000Y-106045000D03*
X154940000Y-106045000D03*
X152400000Y-108585000D03*
X154940000Y-108585000D03*
X152400000Y-111125000D03*
X154940000Y-111125000D03*
X152400000Y-113665000D03*
X154940000Y-113665000D03*
X152400000Y-116205000D03*
X154940000Y-116205000D03*
X152400000Y-118745000D03*
X154940000Y-118745000D03*
X152400000Y-121285000D03*
X154940000Y-121285000D03*
X152400000Y-123825000D03*
X154940000Y-123825000D03*
X152400000Y-126365000D03*
X154940000Y-126365000D03*
X152400000Y-128905000D03*
X154940000Y-128905000D03*
D17*
X128270000Y-76835000D03*
D18*
X128270000Y-74295000D03*
X128270000Y-71755000D03*
X128270000Y-69215000D03*
X128270000Y-66675000D03*
X128270000Y-64135000D03*
X128270000Y-61595000D03*
X128270000Y-59055000D03*
X128270000Y-56515000D03*
D19*
X83312000Y-76624000D03*
X83312000Y-78824000D03*
D20*
X153329640Y-58635900D03*
X148930360Y-58635900D03*
D21*
X131572000Y-71628000D03*
X131572000Y-69728000D03*
D19*
X144018000Y-90084000D03*
X144018000Y-87884000D03*
D22*
X82285000Y-115705000D03*
X82285000Y-110455000D03*
X82285000Y-102905000D03*
X82285000Y-97655000D03*
X75985000Y-97930000D03*
X75985000Y-101430000D03*
X75985000Y-104930000D03*
X75985000Y-108430000D03*
X75985000Y-111930000D03*
D23*
X85645000Y-59690000D03*
X85645000Y-87630000D03*
X85645000Y-92710000D03*
X85645000Y-120650000D03*
D22*
X75985000Y-115430000D03*
X82285000Y-113405000D03*
X82285000Y-108155000D03*
X82285000Y-105205000D03*
X82285000Y-99955000D03*
D24*
X78105000Y-85090000D03*
X78105000Y-82550000D03*
X78105000Y-80010000D03*
X78105000Y-77470000D03*
X78105000Y-74930000D03*
X78105000Y-72390000D03*
X78105000Y-69850000D03*
X78105000Y-67310000D03*
X78105000Y-64770000D03*
X78105000Y-62230000D03*
X80645000Y-85090000D03*
X80645000Y-82550000D03*
X80645000Y-80010000D03*
X80645000Y-77470000D03*
X80645000Y-74930000D03*
X80645000Y-72390000D03*
X80645000Y-69850000D03*
X80645000Y-67310000D03*
X80645000Y-64770000D03*
X80645000Y-62230000D03*
M02*
