M48
;DRILL file {KiCad 4.0.4-stable} date 12/19/16 18:13:41
;FORMAT={-:-/ absolute / metric / decimal}
FMAT,2
METRIC,TZ
T1C0.330
T2C0.500
T3C0.508
T4C0.800
T5C1.016
T6C1.200
T7C1.480
T8C1.524
T9C3.200
%
G90
G05
M71
T1
X91.44Y-56.515
X91.44Y-59.055
X91.44Y-61.595
X91.44Y-64.135
X91.44Y-66.675
X91.44Y-69.215
X91.44Y-71.755
X91.44Y-74.295
X97.917Y-55.245
X97.917Y-57.785
X97.917Y-60.325
X97.917Y-62.865
X97.917Y-65.405
X97.917Y-67.945
X97.917Y-70.485
X97.917Y-73.025
X99.427Y-77.686
X100.33Y-77.63
X101.473Y-56.515
X101.473Y-59.055
X101.473Y-61.595
X101.473Y-64.135
X101.473Y-66.675
X101.473Y-69.215
X101.473Y-71.755
X101.473Y-74.295
X104.14Y-87.63
X106.68Y-61.595
X106.68Y-71.755
X108.585Y-86.36
X111.76Y-56.515
X111.76Y-59.055
X111.76Y-61.595
X111.76Y-64.135
X111.76Y-66.675
X111.76Y-69.215
X111.76Y-71.755
X111.76Y-74.295
X115.57Y-63.5
X115.57Y-73.66
X116.205Y-56.007
X116.205Y-74.803
X116.84Y-57.785
X116.84Y-67.945
X116.84Y-70.472
X116.841Y-60.3
X117.475Y-61.595
X117.475Y-71.755
X117.475Y-84.439
X117.932Y-115.57
X118.618Y-128.524
X120.65Y-56.515
X120.65Y-58.42
X120.65Y-60.325
X120.65Y-64.135
X120.65Y-66.675
X120.65Y-68.58
X120.65Y-70.485
X120.65Y-74.295
X121.285Y-80.645
X121.285Y-81.915
X121.92Y-125.095
X122.809Y-111.506
X123.571Y-115.189
X124.46Y-129.54
X125.095Y-80.01
X125.984Y-128.524
X127.Y-126.365
X130.81Y-80.01
X130.81Y-82.804
X131.445Y-73.025
X132.08Y-129.54
X132.334Y-75.692
X132.765Y-76.531
X133.604Y-69.85
X133.858Y-75.184
X134.62Y-65.024
X134.62Y-75.692
X135.128Y-67.818
X135.382Y-75.184
X136.144Y-65.024
X136.398Y-74.168
X136.398Y-75.184
X136.398Y-97.282
X136.906Y-70.866
X137.16Y-68.834
X138.43Y-70.485
X138.938Y-73.66
X139.446Y-66.04
X139.7Y-129.54
X139.954Y-72.644
X140.462Y-87.122
X140.843Y-86.233
X140.97Y-84.582
X141.14Y-129.54
X141.224Y-127.635
X141.478Y-85.471
X141.732Y-83.82
X141.732Y-97.282
X142.24Y-65.913
X142.494Y-66.802
X142.494Y-67.691
X142.875Y-70.485
X144.526Y-63.246
X144.78Y-83.058
X147.32Y-129.54
X148.336Y-63.246
X148.59Y-60.96
X151.384Y-66.04
X151.384Y-67.056
X153.67Y-67.056
X154.051Y-64.389
X154.432Y-65.532
X154.559Y-67.945
X155.956Y-78.486
T2
X73.8Y-127.
X74.503Y-125.303
X74.503Y-128.697
X76.2Y-124.6
X76.2Y-129.4
X77.897Y-125.303
X77.897Y-128.697
X78.6Y-127.
X115.143Y-104.983
X115.846Y-103.286
X115.846Y-106.68
X117.543Y-102.583
X117.543Y-107.383
X119.24Y-103.286
X119.24Y-106.68
X119.943Y-104.983
X132.22Y-58.42
X132.923Y-56.723
X132.923Y-60.117
X134.62Y-56.02
X134.62Y-60.82
X136.317Y-56.723
X136.317Y-60.117
X137.02Y-58.42
T3
X95.123Y-82.042
X95.758Y-80.391
X99.314Y-85.217
X100.584Y-82.677
X102.87Y-76.2
X104.394Y-80.518
X105.918Y-81.661
X126.238Y-82.931
X135.255Y-104.775
X135.255Y-109.855
X135.255Y-111.125
X135.255Y-112.395
X136.525Y-104.775
X136.525Y-109.855
X136.525Y-111.125
X136.525Y-112.395
X137.795Y-104.775
X137.795Y-109.855
X137.795Y-111.125
X137.795Y-112.395
X139.065Y-103.505
X139.065Y-104.775
X139.065Y-106.045
X139.065Y-107.315
X139.065Y-108.585
X139.065Y-109.855
X139.065Y-111.125
X139.065Y-112.395
X140.335Y-103.505
X140.335Y-104.775
X140.335Y-106.045
X140.335Y-107.315
X141.605Y-103.505
X141.605Y-104.775
X141.605Y-106.045
X141.605Y-107.315
X146.68Y-55.636
X146.68Y-61.135
X153.162Y-70.612
X155.58Y-55.636
X155.58Y-61.135
T4
X128.27Y-56.515
X128.27Y-59.055
X128.27Y-61.595
X128.27Y-64.135
X128.27Y-66.675
X128.27Y-69.215
X128.27Y-71.755
X128.27Y-74.295
X128.27Y-76.835
T5
X86.36Y-73.406
X94.615Y-95.885
X94.615Y-97.79
X94.615Y-99.695
X94.615Y-104.775
X94.615Y-106.68
X94.615Y-108.585
X96.52Y-95.885
X96.52Y-97.79
X96.52Y-99.695
X96.52Y-104.775
X96.52Y-106.68
X96.52Y-108.585
X98.425Y-95.885
X98.425Y-97.79
X98.425Y-99.695
X98.425Y-104.775
X98.425Y-106.68
X98.425Y-108.585
X102.235Y-93.345
X102.235Y-96.52
X102.235Y-102.235
X102.235Y-105.41
X104.14Y-93.345
X104.14Y-96.52
X104.14Y-102.235
X104.14Y-105.41
X106.045Y-95.25
X106.045Y-104.14
X130.556Y-87.376
X130.556Y-89.916
X130.556Y-92.456
X130.556Y-94.996
X133.096Y-87.376
X133.096Y-89.916
X133.096Y-92.456
X133.096Y-94.996
X135.636Y-87.376
X135.636Y-89.916
X135.636Y-92.456
X135.636Y-94.996
X138.176Y-87.376
X138.176Y-89.916
X138.176Y-92.456
X138.176Y-94.996
X142.494Y-78.994
X142.875Y-55.245
X142.875Y-57.785
X142.875Y-60.325
X152.4Y-80.645
X152.4Y-83.185
X152.4Y-85.725
X152.4Y-88.265
X152.4Y-90.805
X152.4Y-93.345
X152.4Y-95.885
X152.4Y-98.425
X152.4Y-100.965
X152.4Y-103.505
X152.4Y-106.045
X152.4Y-108.585
X152.4Y-111.125
X152.4Y-113.665
X152.4Y-116.205
X152.4Y-118.745
X152.4Y-121.285
X152.4Y-123.825
X152.4Y-126.365
X152.4Y-128.905
X154.94Y-80.645
X154.94Y-83.185
X154.94Y-85.725
X154.94Y-88.265
X154.94Y-90.805
X154.94Y-93.345
X154.94Y-95.885
X154.94Y-98.425
X154.94Y-100.965
X154.94Y-103.505
X154.94Y-106.045
X154.94Y-108.585
X154.94Y-111.125
X154.94Y-113.665
X154.94Y-116.205
X154.94Y-118.745
X154.94Y-121.285
X154.94Y-123.825
X154.94Y-126.365
X154.94Y-128.905
T6
X78.105Y-62.23
X78.105Y-64.77
X78.105Y-67.31
X78.105Y-69.85
X78.105Y-72.39
X78.105Y-74.93
X78.105Y-77.47
X78.105Y-80.01
X78.105Y-82.55
X78.105Y-85.09
X80.645Y-62.23
X80.645Y-64.77
X80.645Y-67.31
X80.645Y-69.85
X80.645Y-72.39
X80.645Y-74.93
X80.645Y-77.47
X80.645Y-80.01
X80.645Y-82.55
X80.645Y-85.09
T7
X75.985Y-97.93
X75.985Y-101.43
X75.985Y-104.93
X75.985Y-108.43
X75.985Y-111.93
X75.985Y-115.43
X82.285Y-97.655
X82.285Y-99.955
X82.285Y-102.905
X82.285Y-105.205
X82.285Y-108.155
X82.285Y-110.455
X82.285Y-113.405
X82.285Y-115.705
T8
X102.87Y-114.935
X102.87Y-123.19
X109.855Y-114.935
X110.166Y-122.866
X116.205Y-114.935
X116.205Y-122.555
T9
X76.2Y-127.
X117.543Y-104.983
X134.62Y-58.42
T0
M30
